<?xml version="1.0" encoding="UTF-8"?>
<svg xmlns="http://www.w3.org/2000/svg" width="1280" height="720" viewBox="0 0 1280 720" role="img" aria-label="2026-06-24 AI Agent 晨间简报概览">
  <title>2026-06-24 AI Agent 晨间简报概览</title>
  <defs>
    <linearGradient id="accent" x1="0" y1="0" x2="1" y2="1">
      <stop offset="0%" stop-color="#0a67a3"/>
      <stop offset="52%" stop-color="#4f46e5"/>
      <stop offset="100%" stop-color="#087f5b"/>
    </linearGradient>
    <linearGradient id="barGradient" x1="0" y1="0" x2="1" y2="0">
      <stop offset="0%" stop-color="#0a67a3"/>
      <stop offset="100%" stop-color="#21a67a"/>
    </linearGradient>
    <filter id="shadow" x="-10%" y="-10%" width="120%" height="130%">
      <feDropShadow dx="0" dy="18" stdDeviation="18" flood-color="#102030" flood-opacity="0.12"/>
    </filter>
  </defs>
  <rect width="1280" height="720" fill="#f7faff"/>
  <circle cx="1088" cy="72" r="230" fill="#dfefff" opacity="0.78"/>
  <circle cx="82" cy="620" r="260" fill="#e7f8ef" opacity="0.72"/>
  <path d="M0 124 C220 74 360 176 552 124 C790 60 980 96 1280 34 L1280 0 L0 0 Z" fill="#eef6ff"/>
  <rect x="42" y="42" width="1196" height="636" rx="34" fill="white" filter="url(#shadow)"/>
  <rect x="42" y="42" width="1196" height="636" rx="34" fill="none" stroke="#d8e5f2"/>

  <text x="82" y="96" font-size="18" font-weight="800" letter-spacing="3" fill="#0a67a3">AI / AGENT MORNING BRIEF</text>
  <text x="82" y="148" font-size="54" font-weight="850" letter-spacing="-2.2" fill="#122033">2026-06-24</text>
  <text x="82" y="184" font-size="21" font-weight="650" fill="#5d7186">周三 · 自动生成概览图 · 日报</text>

  <rect x="82" y="224" width="548" height="204" rx="24" fill="#f7fbff" stroke="#d8e5f2"/>
  <text x="110" y="266" font-size="20" font-weight="800" fill="#087f5b">当日核心摘要</text>
  <text x="110" y="311" font-size="27" font-weight="850" fill="#132334">EnterpriseClawBench: Benchmarking Agents from</text>
<text x="110" y="345" font-size="27" font-weight="850" fill="#132334">Real Workplace Sessions…</text>
  <text x="110" y="378" font-size="18" font-weight="500" fill="#4d6176">选择原因：该论文在上一份已发布日报（2026-06-22 10:36 CST）之后进入本轮</text>
<text x="110" y="405" font-size="18" font-weight="500" fill="#4d6176">检索范围，且直接面向企业真实工作流中的 agent benchmark。它不是合成玩具…</text>

  <g>
    <rect x="82" y="460" width="130" height="106" rx="20" fill="#f3f8ff" stroke="#d8e5f2"/>
    <text x="110" y="503" font-size="38" font-weight="850" fill="#0a67a3">20</text>
    <text x="110" y="536" font-size="15" font-weight="700" fill="#5f7184">GitHub 仓库</text>
    <rect x="224" y="460" width="130" height="106" rx="20" fill="#f3fbf6" stroke="#d8e5f2"/>
    <text x="252" y="503" font-size="38" font-weight="850" fill="#087f5b">15</text>
    <text x="252" y="536" font-size="15" font-weight="700" fill="#5f7184">论文图表</text>
    <rect x="366" y="460" width="130" height="106" rx="20" fill="#fff8ed" stroke="#d8e5f2"/>
    <text x="394" y="503" font-size="38" font-weight="850" fill="#a15c00">6</text>
    <text x="394" y="536" font-size="15" font-weight="700" fill="#5f7184">HTML 表格</text>
    <rect x="508" y="460" width="122" height="106" rx="20" fill="#f7f4ff" stroke="#d8e5f2"/>
    <text x="536" y="503" font-size="38" font-weight="850" fill="#4f46e5">55</text>
    <text x="536" y="536" font-size="15" font-weight="700" fill="#5f7184">来源链接</text>
  </g>

  <rect x="674" y="224" width="524" height="366" rx="24" fill="#fbfdff" stroke="#d8e5f2"/>
  <text x="706" y="268" font-size="20" font-weight="850" fill="#132334">关键数据与趋势可视化</text>
  <text x="706" y="301" font-size="16" font-weight="600" fill="#66798d">GitHub 项目关注度/增长代理，按日报原表顺序抽取</text>
  <path d="M706 338 H1166" stroke="#dbe6f0"/>
  
      <text x="690" y="455" font-size="17" font-weight="650" fill="#233246">NousResearch/hermes-agent</text>
      <rect x="910" y="438" width="330" height="18" rx="9" fill="#e8eef6"/>
      <rect x="910" y="438" width="330" height="18" rx="9" fill="url(#barGradient)"/>
      <text x="1255" y="453" font-size="13" font-weight="700" fill="#0b5f91">1,981</text>

      <text x="690" y="493" font-size="17" font-weight="650" fill="#233246">obra/superpowers</text>
      <rect x="910" y="476" width="330" height="18" rx="9" fill="#e8eef6"/>
      <rect x="910" y="476" width="323" height="18" rx="9" fill="url(#barGradient)"/>
      <text x="1248" y="491" font-size="13" font-weight="700" fill="#0b5f91">1,937</text>

      <text x="690" y="531" font-size="17" font-weight="650" fill="#233246">firecrawl/firecrawl</text>
      <rect x="910" y="514" width="330" height="18" rx="9" fill="#e8eef6"/>
      <rect x="910" y="514" width="311" height="18" rx="9" fill="url(#barGradient)"/>
      <text x="1236" y="529" font-size="13" font-weight="700" fill="#0b5f91">1,868</text>

      <text x="690" y="569" font-size="17" font-weight="650" fill="#233246">farion1231/cc-switch</text>
      <rect x="910" y="552" width="330" height="18" rx="9" fill="#e8eef6"/>
      <rect x="910" y="552" width="229" height="18" rx="9" fill="url(#barGradient)"/>
      <text x="1154" y="567" font-size="13" font-weight="700" fill="#0b5f91">1,375</text>

      <text x="690" y="607" font-size="17" font-weight="650" fill="#233246">multica-ai/andrej-karpathy-skills</text>
      <rect x="910" y="590" width="330" height="18" rx="9" fill="#e8eef6"/>
      <rect x="910" y="590" width="215" height="18" rx="9" fill="url(#barGradient)"/>
      <text x="1140" y="605" font-size="13" font-weight="700" fill="#0b5f91">1,290</text>

  <rect x="82" y="596" width="1116" height="42" rx="21" fill="url(#accent)" opacity="0.10"/>
  <text x="110" y="623" font-size="16" font-weight="750" fill="#183247">官方动态：12 条官方链接/动态 · 生成时间：2026-07-22 03:09:15 UTC</text>
</svg>